<svg data-v-423bf9ae="" xmlns="http://www.w3.org/2000/svg" viewBox="0 0 624.7165749034432 60" class="font"><!----><!----><!----><g data-v-423bf9ae="" id="72cb6ff6-4682-487b-8ded-615e541d19e6" fill="white" transform="matrix(4.535147549208299,0,0,4.535147549208299,-2.312929964907596,-13.560090976964773)"><path d="M6.10 6.53L5.91 7.45C5.40 6.78 4.62 6.36 3.60 6.36C1.88 6.36 0.51 7.69 0.51 9.84C0.51 12.00 1.88 13.31 3.60 13.31C4.61 13.31 5.38 12.89 5.89 12.22L6.10 13.15L7.26 13.15L7.26 6.53ZM3.94 12.12C2.74 12.12 1.95 11.14 1.95 9.84C1.95 8.55 2.74 7.55 3.94 7.55C5.18 7.55 5.98 8.55 5.98 9.84C5.98 11.14 5.18 12.12 3.94 12.12ZM13.94 3.24L13.94 7.32C13.43 6.72 12.70 6.36 11.75 6.36C10.03 6.36 8.66 7.69 8.66 9.84C8.66 12.00 10.03 13.31 11.75 13.31C12.75 13.31 13.52 12.91 14.03 12.25L14.20 13.15L15.36 13.15L15.36 3.24ZM12.09 12.12C10.89 12.12 10.11 11.14 10.11 9.84C10.11 8.55 10.89 7.55 12.09 7.55C13.33 7.55 14.13 8.55 14.13 9.84C14.13 11.14 13.33 12.12 12.09 12.12ZM23.41 9.70C23.41 7.73 22.08 6.36 20.15 6.36C18.17 6.36 16.74 7.89 16.74 9.84C16.74 11.80 18.16 13.31 20.33 13.31C21.47 13.31 22.43 12.92 23.03 12.25L22.05 11.46C21.63 11.94 21.06 12.19 20.31 12.19C19.07 12.19 18.33 11.33 18.23 10.15L23.41 10.15ZM20.15 7.50C21.19 7.50 21.86 8.12 22.01 9.17L18.29 9.17C18.49 8.17 19.18 7.50 20.15 7.50ZM27.96 6.53L26.54 6.53L26.54 4.64L25.14 4.64L25.14 6.53L24.27 6.53L24.27 7.67L25.14 7.67L25.14 13.15L26.56 13.15L26.54 7.67L27.96 7.67ZM31.91 13.33C33.35 13.33 34.87 12.67 34.87 10.31L34.87 6.53L33.45 6.53L33.45 10.32C33.45 11.43 32.91 12.12 31.91 12.12C30.90 12.12 30.36 11.43 30.36 10.32L30.36 6.53L28.95 6.53L28.95 10.31C28.95 12.67 30.46 13.33 31.91 13.33ZM40.00 6.36C39.07 6.36 38.37 6.75 37.96 7.32L37.79 6.53L36.55 6.53L36.55 13.15L37.96 13.15L37.96 9.11C38.08 7.95 38.86 7.57 39.61 7.57C40.63 7.57 41.07 8.30 41.07 9.38L41.07 13.15L42.48 13.15L42.48 9.06C42.48 7 41.15 6.36 40.00 6.36ZM45.05 5.26C45.56 5.26 45.97 4.86 45.97 4.36C45.97 3.86 45.56 3.46 45.05 3.46C44.55 3.46 44.14 3.86 44.14 4.36C44.14 4.86 44.55 5.26 45.05 5.26ZM45.76 6.53L44.35 6.53L44.35 13.90C44.35 14.86 43.87 15.01 43.57 15.01C43.44 15.01 43.30 14.98 43.25 14.96L43.15 16.16C43.24 16.19 43.46 16.22 43.68 16.22C44.44 16.22 45.76 15.98 45.76 13.77ZM48.52 5.26C49.03 5.26 49.44 4.86 49.44 4.36C49.44 3.86 49.03 3.46 48.52 3.46C48.02 3.46 47.61 3.86 47.61 4.36C47.61 4.86 48.02 5.26 48.52 5.26ZM47.85 13.15L49.23 13.15L49.23 6.53L47.85 6.53ZM58.06 13.34C60.14 13.34 61.60 11.81 61.60 9.84C61.60 7.89 60.14 6.36 58.06 6.36C55.94 6.36 54.50 7.89 54.50 9.84C54.50 11.81 55.94 13.34 58.06 13.34ZM58.06 12.13C56.83 12.13 55.97 11.14 55.97 9.84C55.97 8.56 56.83 7.57 58.06 7.57C59.27 7.57 60.13 8.56 60.13 9.84C60.13 11.14 59.27 12.13 58.06 12.13ZM63.04 13.15L64.46 13.15L64.46 3.24L63.04 3.24ZM69.15 13.33C70.60 13.33 72.11 12.67 72.11 10.31L72.11 6.53L70.70 6.53L70.70 10.32C70.70 11.43 70.16 12.12 69.15 12.12C68.15 12.12 67.61 11.43 67.61 10.32L67.61 6.53L66.19 6.53L66.19 10.31C66.19 12.67 67.71 13.33 69.15 13.33ZM81.87 6.53L80.27 11.33L78.79 6.53L77.61 6.53L76.14 11.33L74.52 6.53L73.02 6.53L75.53 13.15L76.71 13.15L78.21 8.17L79.70 13.15L80.88 13.15L83.39 6.53ZM89.59 6.53L89.40 7.45C88.89 6.78 88.11 6.36 87.09 6.36C85.37 6.36 84.00 7.69 84.00 9.84C84.00 12.00 85.37 13.31 87.09 13.31C88.10 13.31 88.87 12.89 89.38 12.22L89.59 13.15L90.75 13.15L90.75 6.53ZM87.43 12.12C86.23 12.12 85.44 11.14 85.44 9.84C85.44 8.55 86.23 7.55 87.43 7.55C88.67 7.55 89.47 8.55 89.47 9.84C89.47 11.14 88.67 12.12 87.43 12.12ZM95.00 4.20C95.19 4.20 95.43 4.27 95.65 4.43L96.26 3.40C95.80 3.12 95.40 2.99 94.85 2.99C93.67 2.99 92.84 3.81 92.84 5.40L92.84 6.53L91.96 6.53L91.96 7.67L92.84 7.67L92.84 13.15L94.24 13.15L94.24 7.67L95.62 7.67L95.62 6.53L94.24 6.53L94.24 5.29C94.24 4.65 94.43 4.20 95.00 4.20ZM103.00 9.70C103.00 7.73 101.68 6.36 99.75 6.36C97.77 6.36 96.34 7.89 96.34 9.84C96.34 11.80 97.75 13.31 99.93 13.31C101.06 13.31 102.03 12.92 102.62 12.25L101.65 11.46C101.22 11.94 100.65 12.19 99.91 12.19C98.67 12.19 97.93 11.33 97.83 10.15L103.00 10.15ZM99.75 7.50C100.79 7.50 101.46 8.12 101.60 9.17L97.88 9.17C98.09 8.17 98.77 7.50 99.75 7.50ZM107.49 6.36C106.71 6.36 106.18 6.74 105.80 7.41L105.63 6.53L104.40 6.53L104.40 13.15L105.82 13.15L105.82 9.70C105.82 8.62 106.39 7.66 107.42 7.66C107.65 7.66 107.87 7.70 108.06 7.79L108.49 6.58C108.31 6.47 107.93 6.36 107.49 6.36ZM114.60 6.53L114.41 7.45C113.90 6.78 113.12 6.36 112.10 6.36C110.38 6.36 109.01 7.69 109.01 9.84C109.01 12.00 110.38 13.31 112.10 13.31C113.11 13.31 113.88 12.89 114.39 12.22L114.60 13.15L115.76 13.15L115.76 6.53ZM112.44 12.12C111.24 12.12 110.45 11.14 110.45 9.84C110.45 8.55 111.24 7.55 112.44 7.55C113.68 7.55 114.48 8.55 114.48 9.84C114.48 11.14 113.68 12.12 112.44 12.12ZM120.97 6.36C120.04 6.36 119.34 6.75 118.93 7.32L118.75 6.53L117.51 6.53L117.51 13.15L118.93 13.15L118.93 9.11C119.04 7.95 119.83 7.57 120.58 7.57C121.60 7.57 122.03 8.30 122.03 9.38L122.03 13.15L123.45 13.15L123.45 9.06C123.45 7 122.12 6.36 120.97 6.36ZM132.43 6.36C131.26 6.36 130.68 6.80 130.26 7.41C129.84 6.66 129.11 6.36 128.35 6.36C127.59 6.36 126.90 6.72 126.53 7.38L126.36 6.53L125.13 6.53L125.13 13.15L126.54 13.15L126.54 9.26C126.63 8.15 127.15 7.57 128.00 7.57C128.90 7.57 129.27 8.31 129.27 9.39L129.27 13.15L130.68 13.15L130.68 9.60C130.68 8.30 131.21 7.57 132.13 7.57C133.04 7.57 133.41 8.31 133.41 9.38L133.41 13.15L134.82 13.15L134.82 9.28C134.82 7.12 133.69 6.36 132.43 6.36ZM137.35 5.26C137.86 5.26 138.26 4.86 138.26 4.36C138.26 3.86 137.86 3.46 137.35 3.46C136.85 3.46 136.44 3.86 136.44 4.36C136.44 4.86 136.85 5.26 137.35 5.26ZM136.68 13.15L138.06 13.15L138.06 6.53L136.68 6.53Z"></path></g><!----><!----></svg>